                  Puss in Boots 2011 720P BRRIP XViD AC3 - HOPE

Cover
 
http://images.net63.net/short_url/?LXESI

Screene:
 
http://images.net63.net/short_url/?OMZLA 
http://images.net63.net/short_url/?ESCJX 
http://images.net63.net/short_url/?MCXSH 
http://images.net63.net/short_url/?ZWBMY 
http://images.net63.net/short_url/?YXIBQ 
http://images.net63.net/short_url/?NALFH 
http://images.net63.net/short_url/?KJGGQ 
http://images.net63.net/short_url/?YADLA

Plot: 
A story about the events leading up to the sword fighting cat's meeting with Shrek and his friends. 

IMDB: 
www.imdb.com/title/tt0448694/

Information:
Format                           : AVI
Format/Info                      : Audio Video Interleave
File size                        : 1.94 GiB
Duration                         : 1h 30mn
Overall bit rate                 : 3 079 Kbps

Video
ID                               : 0
Format                           : MPEG-4 Visual
Format profile                   : Advanced Simple@L5
Format settings, BVOP            : 2
Format settings, QPel            : No
Format settings, GMC             : No warppoints
Format settings, Matrix          : Default (H.263)
Muxing mode                      : Packed bitstream
Codec ID                         : XVID
Codec ID/Hint                    : XviD
Duration                         : 1h 30mn
Bit rate                         : 2 623 Kbps
Width                            : 1 280 pixels
Height                           : 544 pixels
Display aspect ratio             : 2.35:1
Frame rate                       : 23.976 fps
Color space                      : YUV
Chroma subsampling               : 4:2:0
Bit depth                        : 8 bits
Scan type                        : Progressive
Compression mode                 : Lossy
Bits/(Pixel*Frame)               : 0.157
Stream size                      : 1.65 GiB (85%)
Writing library                  : XviD 64

Audio
ID                               : 1
Format                           : AC-3
Format/Info                      : Audio Coding 3
Mode extension                   : CM (complete main)
Codec ID                         : 2000
Duration                         : 1h 30mn
Bit rate mode                    : Constant
Bit rate                         : 448 Kbps
Channel(s)                       : 6 channels
Channel positions                : Front: L C R, Side: L R, LFE
Sampling rate                    : 48.0 KHz
Bit depth                        : 16 bits
Compression mode                 : Lossy
Stream size                      : 289 MiB (15%)
Alignment                        : Aligned on interleaves
Interleave, duration             : 64 ms (1.53 video frames)
Interleave, preload duration     : 192 ms


Notes: 
Just another release of many lol 

Source > 720p.BluRay.x264.DTS-HDC... Thanks 

Enjoy!

Respects to 26K, DTRG, JCRG, GooN, ViSiON, SANTi, INSPiRAL, REFiLL, SiC... 
And many others in the P2P and Scene world
